<svg width="328" height="152" viewBox="0 0 328 152" fill="none" xmlns="http://www.w3.org/2000/svg">
<path d="M220.945 100.584C221.871 100.584 222.588 100.902 223.098 101.537C223.613 102.167 223.87 103.062 223.87 104.22C223.87 105.379 223.61 106.28 223.092 106.924C222.578 107.563 221.862 107.883 220.945 107.883C220.487 107.883 220.067 107.799 219.685 107.632C219.308 107.46 218.991 107.198 218.734 106.846H218.657L218.432 107.754H217.667V97.7393H218.734V100.172C218.734 100.717 218.717 101.206 218.683 101.64H218.734C219.231 100.936 219.968 100.584 220.945 100.584ZM220.791 101.479C220.062 101.479 219.537 101.689 219.216 102.109C218.895 102.526 218.734 103.229 218.734 104.22C218.734 105.212 218.899 105.922 219.229 106.351C219.559 106.776 220.088 106.988 220.817 106.988C221.472 106.988 221.961 106.75 222.282 106.274C222.603 105.793 222.764 105.104 222.764 104.208C222.764 103.289 222.603 102.605 222.282 102.154C221.961 101.704 221.464 101.479 220.791 101.479Z" fill="white"/>
<path d="M224.622 100.7H225.766L227.308 104.722C227.647 105.641 227.857 106.304 227.938 106.711H227.99C228.045 106.492 228.161 106.119 228.337 105.591C228.517 105.059 229.1 103.429 230.085 100.7H231.229L228.202 108.732C227.902 109.526 227.551 110.088 227.148 110.418C226.749 110.753 226.259 110.921 225.676 110.921C225.35 110.921 225.029 110.884 224.712 110.811V109.955C224.947 110.007 225.211 110.032 225.502 110.032C226.235 110.032 226.758 109.62 227.071 108.797L227.463 107.793L224.622 100.7Z" fill="white"/>
<path d="M294.03 100.491C293.558 100.475 293.089 100.562 292.654 100.747C292.22 100.931 291.832 101.208 291.517 101.559H291.499V96.4297H289.275V108.887H291.381V107.887L291.415 107.87C292.01 108.632 292.842 109.038 293.962 109.038C296.272 109.038 297.953 107.329 297.953 104.773C297.953 102.268 296.272 100.491 294.03 100.491L294.03 100.491ZM293.572 107.041C292.349 107.041 291.398 106.144 291.398 104.789C291.398 103.453 292.281 102.471 293.555 102.471C294.743 102.471 295.695 103.368 295.695 104.789C295.695 106.11 294.811 107.041 293.572 107.041Z" fill="white"/>
<path d="M277.077 96.4297H274.867V108.874H277.077V96.4297Z" fill="white"/>
<path d="M269.008 100.441C266.546 100.441 264.796 102.177 264.796 104.715C264.796 107.318 266.596 109.038 269.144 109.038C270.995 109.038 272.066 108.357 272.763 107.455L271.319 106.111C271.078 106.414 270.77 106.656 270.419 106.819C270.068 106.982 269.683 107.06 269.297 107.047C268.176 107.047 267.378 106.451 267.106 105.447H272.932C272.949 105.311 272.983 104.919 272.983 104.647C272.983 102.213 271.353 100.442 269.008 100.442V100.441ZM267.123 103.846C267.214 103.421 267.451 103.042 267.792 102.774C268.134 102.506 268.558 102.368 268.992 102.382C269.96 102.382 270.555 102.961 270.775 103.846H267.123Z" fill="white"/>
<path d="M253.088 96.4297H250.796V108.874H253.088V96.4297Z" fill="white"/>
<path d="M260.752 104.636C260.752 106.228 259.886 107.04 258.917 107.04C257.882 107.04 257.423 106.532 257.423 105.025V100.605H255.216V105.601C255.216 108.123 256.473 109.038 258.273 109.038C258.741 109.041 259.204 108.94 259.627 108.74C260.05 108.541 260.423 108.25 260.718 107.887L260.752 107.904V108.886H262.994V100.605H260.752V104.636Z" fill="white"/>
<path d="M247.299 102.047C248.216 101.05 248.794 99.7884 248.951 98.443C249.108 97.0977 248.836 95.7371 248.173 94.5556C247.511 93.3742 246.492 92.4322 245.262 91.8644C244.032 91.2965 242.654 91.1318 241.325 91.3938C239.996 91.6557 238.783 92.3309 237.861 93.3229C236.938 94.3149 236.353 95.5729 236.188 96.9174C236.024 98.2618 236.288 99.6239 236.944 100.809C237.6 101.994 238.614 102.942 239.841 103.517L239.847 103.557V108.875H244.791C247.475 108.875 248.767 107.465 248.767 105.546C248.767 104.086 248.027 103.054 246.719 102.602C246.924 102.429 247.118 102.244 247.3 102.047H247.299ZM244.451 106.769H242.209V103.678H244.213C245.589 103.678 246.286 104.289 246.286 105.24C246.286 106.259 245.589 106.769 244.451 106.769L244.451 106.769ZM242.209 98.9217C242.209 98.9217 243.857 98.9217 244.302 98.9422C245.321 99.0475 245.742 99.5742 245.742 100.332C245.742 101.318 245.045 101.742 244.01 101.742H242.209L242.211 100.366C242.211 100.073 242.209 98.9226 242.209 98.9226L242.209 98.9217ZM246.75 97.2838C246.328 97.0788 245.873 96.9464 245.407 96.8922C245.339 96.884 245.272 96.8818 245.205 96.8777C244.871 96.8356 244.534 96.8148 244.196 96.8154H239.847C239.847 96.8154 239.841 99.7203 239.842 100.974C239.792 100.933 239.741 100.894 239.693 100.85C239.182 100.384 238.792 99.7998 238.557 99.1488C238.322 98.4978 238.25 97.7994 238.346 97.1141C238.442 96.4288 238.703 95.7772 239.108 95.2157C239.512 94.6542 240.048 94.1998 240.667 93.8917C241.287 93.5836 241.973 93.4311 242.665 93.4475C243.357 93.4639 244.034 93.6487 244.638 93.9858C245.243 94.3229 245.756 94.8022 246.134 95.3822C246.511 95.9622 246.741 96.6255 246.805 97.3145L246.75 97.2838Z" fill="white"/>
<path d="M284.926 101.515L284.892 101.532C284.591 101.18 284.215 100.9 283.793 100.711C283.371 100.523 282.912 100.431 282.45 100.442C280.228 100.442 278.55 102.229 278.55 104.747C278.55 107.316 280.228 109.035 282.501 109.035C282.978 109.056 283.454 108.962 283.887 108.761C284.321 108.56 284.7 108.257 284.993 107.879L285.027 107.895V108.882H287.146V100.562H284.925L284.926 101.515ZM282.924 107.027C281.669 107.027 280.804 106.091 280.804 104.764C280.804 103.335 281.72 102.433 282.924 102.433C284.111 102.433 285.027 103.42 285.027 104.764C285.027 106.126 284.06 107.027 282.924 107.027Z" fill="white"/>
<path opacity="0.2" d="M58.1545 74.2904C58.6071 74.2904 58.974 73.9235 58.974 73.4709C58.974 73.0183 58.6071 72.6514 58.1545 72.6514C57.7019 72.6514 57.335 73.0183 57.335 73.4709C57.335 73.9235 57.7019 74.2904 58.1545 74.2904Z" fill="white"/>
<path opacity="0.2" d="M56.5212 79.2084C56.9738 79.2084 57.3407 78.8415 57.3407 78.3889C57.3407 77.9363 56.9738 77.5693 56.5212 77.5693C56.0686 77.5693 55.7017 77.9363 55.7017 78.3889C55.7017 78.8415 56.0686 79.2084 56.5212 79.2084Z" fill="white"/>
<path opacity="0.2" d="M50.779 79.2084C51.2316 79.2084 51.5985 78.8415 51.5985 78.3889C51.5985 77.9363 51.2316 77.5693 50.779 77.5693C50.3264 77.5693 49.9595 77.9363 49.9595 78.3889C49.9595 78.8415 50.3264 79.2084 50.779 79.2084Z" fill="white"/>
<path opacity="0.2" d="M47.5056 72.6498C47.9582 72.6498 48.3251 72.2829 48.3251 71.8303C48.3251 71.3777 47.9582 71.0107 47.5056 71.0107C47.053 71.0107 46.686 71.3777 46.686 71.8303C46.686 72.2829 47.053 72.6498 47.5056 72.6498Z" fill="white"/>
<path opacity="0.2" d="M52.4202 67.3219C53.0991 67.3219 53.6495 66.7715 53.6495 66.0926C53.6495 65.4137 53.0991 64.8633 52.4202 64.8633C51.7413 64.8633 51.1909 65.4137 51.1909 66.0926C51.1909 66.7715 51.7413 67.3219 52.4202 67.3219Z" fill="white"/>
<path opacity="0.2" d="M60.6141 68.9605C61.293 68.9605 61.8434 68.4102 61.8434 67.7312C61.8434 67.0523 61.293 66.502 60.6141 66.502C59.9351 66.502 59.3848 67.0523 59.3848 67.7312C59.3848 68.4102 59.9351 68.9605 60.6141 68.9605Z" fill="white"/>
<path opacity="0.5" d="M63.0774 78.7975C63.7564 78.7975 64.3067 78.2471 64.3067 77.5682C64.3067 76.8892 63.7564 76.3389 63.0774 76.3389C62.3985 76.3389 61.8481 76.8892 61.8481 77.5682C61.8481 78.2471 62.3985 78.7975 63.0774 78.7975Z" fill="white"/>
<path opacity="0.5" d="M54.0595 85.7596C54.9647 85.7596 55.6985 85.0257 55.6985 84.1205C55.6985 83.2153 54.9647 82.4814 54.0595 82.4814C53.1542 82.4814 52.4204 83.2153 52.4204 84.1205C52.4204 85.0257 53.1542 85.7596 54.0595 85.7596Z" fill="white"/>
<path opacity="0.5" d="M44.2279 80.0271C45.1332 80.0271 45.867 79.2933 45.867 78.3881C45.867 77.4829 45.1332 76.749 44.2279 76.749C43.3227 76.749 42.5889 77.4829 42.5889 78.3881C42.5889 79.2933 43.3227 80.0271 44.2279 80.0271Z" fill="white"/>
<path d="M44.2279 67.7312C45.1332 67.7312 45.867 66.9974 45.867 66.0922C45.867 65.187 45.1332 64.4531 44.2279 64.4531C43.3227 64.4531 42.5889 65.187 42.5889 66.0922C42.5889 66.9974 43.3227 67.7312 44.2279 67.7312Z" fill="white"/>
<path opacity="0.5" d="M56.5229 61.9949C57.4281 61.9949 58.1619 61.2611 58.1619 60.3559C58.1619 59.4506 57.4281 58.7168 56.5229 58.7168C55.6176 58.7168 54.8838 59.4506 54.8838 60.3559C54.8838 61.2611 55.6176 61.9949 56.5229 61.9949Z" fill="white"/>
<path opacity="0.5" d="M67.9937 72.2402C69.1252 72.2402 70.0425 71.3229 70.0425 70.1914C70.0425 69.0599 69.1252 68.1426 67.9937 68.1426C66.8621 68.1426 65.9448 69.0599 65.9448 70.1914C65.9448 71.3229 66.8621 72.2402 67.9937 72.2402Z" fill="white"/>
<path d="M63.897 86.9912C65.0285 86.9912 65.9458 86.0739 65.9458 84.9424C65.9458 83.8108 65.0285 82.8936 63.897 82.8936C62.7654 82.8936 61.8481 83.8108 61.8481 84.9424C61.8481 86.0739 62.7654 86.9912 63.897 86.9912Z" fill="white"/>
<path opacity="0.5" d="M47.5029 90.2676C48.6345 90.2676 49.5518 89.3503 49.5518 88.2187C49.5518 87.0872 48.6345 86.1699 47.5029 86.1699C46.3714 86.1699 45.4541 87.0872 45.4541 88.2187C45.4541 89.3503 46.3714 90.2676 47.5029 90.2676Z" fill="white"/>
<path opacity="0.5" d="M36.8521 76.7482C38.21 76.7482 39.3107 75.6475 39.3107 74.2896C39.3107 72.9318 38.21 71.8311 36.8521 71.8311C35.4943 71.8311 34.3936 72.9318 34.3936 74.2896C34.3936 75.6475 35.4943 76.7482 36.8521 76.7482Z" fill="white"/>
<path opacity="0.5" d="M45.8653 60.3557C47.2232 60.3557 48.3239 59.2549 48.3239 57.8971C48.3239 56.5392 47.2232 55.4385 45.8653 55.4385C44.5075 55.4385 43.4067 56.5392 43.4067 57.8971C43.4067 59.2549 44.5075 60.3557 45.8653 60.3557Z" fill="white"/>
<path opacity="0.5" d="M65.5372 61.173C66.895 61.173 67.9958 60.0723 67.9958 58.7145C67.9958 57.3566 66.895 56.2559 65.5372 56.2559C64.1794 56.2559 63.0786 57.3566 63.0786 58.7145C63.0786 60.0723 64.1794 61.173 65.5372 61.173Z" fill="white"/>
<path opacity="0.5" d="M73.7242 80.0256C75.0821 80.0256 76.1828 78.9248 76.1828 77.567C76.1828 76.2091 75.0821 75.1084 73.7242 75.1084C72.3664 75.1084 71.2656 76.2091 71.2656 77.567C71.2656 78.9248 72.3664 80.0256 73.7242 80.0256Z" fill="white"/>
<path d="M58.9719 96.0043C60.556 96.0043 61.8402 94.7201 61.8402 93.1359C61.8402 91.5518 60.556 90.2676 58.9719 90.2676C57.3877 90.2676 56.1035 91.5518 56.1035 93.1359C56.1035 94.7201 57.3877 96.0043 58.9719 96.0043Z" fill="white"/>
<path d="M37.6657 90.2709C39.2499 90.2709 40.5341 88.9867 40.5341 87.4025C40.5341 85.8184 39.2499 84.5342 37.6657 84.5342C36.0816 84.5342 34.7974 85.8184 34.7974 87.4025C34.7974 88.9867 36.0816 90.2709 37.6657 90.2709Z" fill="white"/>
<path opacity="0.8" d="M33.5671 67.3236C35.1512 67.3236 36.4354 66.0394 36.4354 64.4553C36.4354 62.8711 35.1512 61.5869 33.5671 61.5869C31.9829 61.5869 30.6987 62.8711 30.6987 64.4553C30.6987 66.0394 31.9829 67.3236 33.5671 67.3236Z" fill="white"/>
<path d="M53.2404 53.392C54.8246 53.392 56.1088 52.1078 56.1088 50.5236C56.1088 48.9395 54.8246 47.6553 53.2404 47.6553C51.6563 47.6553 50.3721 48.9395 50.3721 50.5236C50.3721 52.1078 51.6563 53.392 53.2404 53.392Z" fill="white"/>
<path opacity="0.8" d="M75.3709 65.273C77.1814 65.273 78.649 63.8054 78.649 61.9949C78.649 60.1845 77.1814 58.7168 75.3709 58.7168C73.5604 58.7168 72.0928 60.1845 72.0928 61.9949C72.0928 63.8054 73.5604 65.273 75.3709 65.273Z" fill="white"/>
<path opacity="0.8" d="M74.5437 91.4986C76.3542 91.4986 77.8219 90.031 77.8219 88.2205C77.8219 86.41 76.3542 84.9424 74.5437 84.9424C72.7333 84.9424 71.2656 86.41 71.2656 88.2205C71.2656 90.031 72.7333 91.4986 74.5437 91.4986Z" fill="white"/>
<path opacity="0.8" d="M49.1482 102.152C50.9587 102.152 52.4264 100.684 52.4264 98.8738C52.4264 97.0634 50.9587 95.5957 49.1482 95.5957C47.3378 95.5957 45.8701 97.0634 45.8701 98.8738C45.8701 100.684 47.3378 102.152 49.1482 102.152Z" fill="white"/>
<path opacity="0.8" d="M27.8358 84.533C29.8726 84.533 31.5237 82.8819 31.5237 80.8451C31.5237 78.8083 29.8726 77.1572 27.8358 77.1572C25.7991 77.1572 24.1479 78.8083 24.1479 80.8451C24.1479 82.8819 25.7991 84.533 27.8358 84.533Z" fill="white"/>
<path d="M35.2138 55.8494C37.2505 55.8494 38.9017 54.1983 38.9017 52.1615C38.9017 50.1248 37.2505 48.4736 35.2138 48.4736C33.177 48.4736 31.5259 50.1248 31.5259 52.1615C31.5259 54.1983 33.177 55.8494 35.2138 55.8494Z" fill="white"/>
<path opacity="0.8" d="M65.536 50.1131C67.5728 50.1131 69.2239 48.462 69.2239 46.4252C69.2239 44.3884 67.5728 42.7373 65.536 42.7373C63.4993 42.7373 61.8481 44.3884 61.8481 46.4252C61.8481 48.462 63.4993 50.1131 65.536 50.1131Z" fill="white"/>
<path opacity="0.8" d="M83.5624 75.5184C85.5992 75.5184 87.2503 73.8672 87.2503 71.8305C87.2503 69.7937 85.5992 68.1426 83.5624 68.1426C81.5256 68.1426 79.8745 69.7937 79.8745 71.8305C79.8745 73.8672 81.5256 75.5184 83.5624 75.5184Z" fill="white"/>
<path opacity="0.8" d="M68.8115 104.611C71.0746 104.611 72.9092 102.777 72.9092 100.514C72.9092 98.2506 71.0746 96.416 68.8115 96.416C66.5484 96.416 64.7139 98.2506 64.7139 100.514C64.7139 102.777 66.5484 104.611 68.8115 104.611Z" fill="white"/>
<path d="M36.0283 103.791C38.2914 103.791 40.126 101.956 40.126 99.6934C40.126 97.4303 38.2914 95.5957 36.0283 95.5957C33.7652 95.5957 31.9307 97.4303 31.9307 99.6934C31.9307 101.956 33.7652 103.791 36.0283 103.791Z" fill="white"/>
<path d="M22.0977 72.6484C24.3607 72.6484 26.1953 70.8139 26.1953 68.5508C26.1953 66.2877 24.3607 64.4531 22.0977 64.4531C19.8346 64.4531 18 66.2877 18 68.5508C18 70.8139 19.8346 72.6484 22.0977 72.6484Z" fill="white"/>
<path d="M44.2291 46.0148C46.7185 46.0148 48.7365 43.9968 48.7365 41.5074C48.7365 39.018 46.7185 37 44.2291 37C41.7397 37 39.7217 39.018 39.7217 41.5074C39.7217 43.9968 41.7397 46.0148 44.2291 46.0148Z" fill="white"/>
<path d="M79.4674 55.0295C81.9568 55.0295 83.9748 53.0114 83.9748 50.5221C83.9748 48.0327 81.9568 46.0146 79.4674 46.0146C76.978 46.0146 74.96 48.0327 74.96 50.5221C74.96 53.0114 76.978 55.0295 79.4674 55.0295Z" fill="white"/>
<path d="M86.8448 91.0881C89.3342 91.0881 91.3522 89.07 91.3522 86.5807C91.3522 84.0913 89.3342 82.0732 86.8448 82.0732C84.3554 82.0732 82.3374 84.0913 82.3374 86.5807C82.3374 89.07 84.3554 91.0881 86.8448 91.0881Z" fill="white"/>
<path d="M56.5138 114.037C59.0031 114.037 61.0212 112.019 61.0212 109.53C61.0212 107.041 59.0031 105.022 56.5138 105.022C54.0244 105.022 52.0063 107.041 52.0063 109.53C52.0063 112.019 54.0244 114.037 56.5138 114.037Z" fill="white"/>
<path d="M107.972 68.5995C107.972 77.6946 115.434 85.0604 124.942 85.0604C131.611 85.0604 137.554 81.3455 140.394 75.8372L132.668 75.7731C130.951 77.5665 128.376 78.9756 124.744 78.9756C119.396 78.9756 115.434 75.581 114.905 70.8413L141.582 70.8413C141.714 70.0086 141.78 69.0479 141.78 67.959C141.45 58.0312 133.262 52.0105 124.744 52.0105C115.236 52.0105 107.972 59.5684 107.972 68.5995ZM114.905 65.7173C116.094 61.3618 119.792 58.0953 124.942 58.0953C129.697 58.0953 133.658 61.3618 134.847 65.7173L114.905 65.7173Z" fill="white"/>
<path d="M179.057 68.5355L179.057 39.7129L172.519 39.7129L172.519 56.6221C170.076 53.8039 166.511 52.0105 162.086 52.0105C152.71 52.0105 145.05 59.3763 145.05 68.5355C145.05 77.6946 152.71 85.0604 162.086 85.0604C171.463 85.0604 179.057 77.6946 179.057 68.5355ZM162.086 58.0953C168.029 58.0953 172.652 62.7069 172.652 68.5355C172.652 74.364 168.095 78.9756 162.086 78.9756C156.012 78.9756 151.521 74.364 151.521 68.5355C151.521 62.7069 156.078 58.0953 162.086 58.0953Z" fill="white"/>
<path d="M182.709 68.5995C182.709 77.6946 190.17 85.0604 199.679 85.0604C206.348 85.0604 212.291 81.3455 215.13 75.8372L207.405 75.7731C205.688 77.5665 203.113 78.9756 199.481 78.9756C194.132 78.9756 190.17 75.581 189.642 70.8413L216.319 70.8413C216.451 70.0086 216.517 69.0479 216.517 67.959C216.187 58.0312 207.999 52.0105 199.481 52.0105C189.972 52.0105 182.709 59.5684 182.709 68.5995ZM189.642 65.7173C190.831 61.3618 194.529 58.0953 199.679 58.0953C204.433 58.0953 208.395 61.3618 209.584 65.7173L189.642 65.7173Z" fill="white"/>
<path d="M249.171 84.548L242.7 84.548L242.7 67.7028C242.7 61.1697 239.795 58.0953 234.644 58.0953C229.494 58.0953 226.588 61.1697 226.588 67.7028L226.588 84.548L220.117 84.548L220.117 67.7028C220.117 56.9424 226.192 52.0105 234.644 52.0105C243.096 52.0105 249.171 56.9424 249.171 67.7028L249.171 84.548Z" fill="white"/>
<path d="M254.504 84.548L260.975 84.548L260.975 52.5229L254.504 52.5229L254.504 84.548Z" fill="white"/>
<path d="M282.284 85.0604C289.482 85.0604 295.623 80.769 298 74.6202L290.934 74.6202C289.086 77.2463 286.048 78.9756 282.35 78.9756C276.341 78.9756 271.719 74.364 271.719 68.5355C271.719 62.7069 276.275 58.0953 282.35 58.0953C286.114 58.0953 289.218 59.8887 291.067 62.5788L298 62.5788C295.689 56.43 289.548 52.0105 282.284 52.0105C272.842 52.0105 265.248 59.3763 265.248 68.5355C265.248 77.6946 272.842 85.0604 282.284 85.0604Z" fill="white"/>
</svg>
